<svg width="50.000000" height="50.000000" viewBox="0 0 50 50" fill="none" xmlns="http://www.w3.org/2000/svg" xmlns:xlink="http://www.w3.org/1999/xlink">
	<desc>
			Created with Pixso.
	</desc>
	<defs/>
	<rect id="CSS" rx="10.000000" width="50.000000" height="50.000000" fill="#264DE4" fill-opacity="1.000000"/>
	<path id="polygon2993" d="M11.98 21.08L12.47 26.55L24.72 26.55L24.72 21.08L11.98 21.08Z" fill="#EBEBEB" fill-opacity="1.000000" fill-rule="nonzero"/>
	<path id="polygon2995" d="M24.72 10L24.7 10L11 10L11.49 15.47L24.72 15.47L24.72 10Z" fill="#EBEBEB" fill-opacity="1.000000" fill-rule="nonzero"/>
	<path id="polygon2997" d="M24.72 40.99L24.72 35.29L24.7 35.3L18.6 33.65L18.21 29.29L15.25 29.29L12.72 29.29L13.48 37.88L24.7 41L24.72 40.99Z" fill="#EBEBEB" fill-opacity="1.000000" fill-rule="nonzero"/>
	<path id="polygon3005" d="M31.44 26.55L30.81 33.65L24.7 35.3L24.7 40.99L35.93 37.88L36.01 36.96L37.29 22.55L37.43 21.08L38.42 10L24.7 10L24.7 15.47L32.42 15.47L31.92 21.08L24.7 21.08L24.7 26.55L31.44 26.55Z" fill="#FFFFFF" fill-opacity="1.000000" fill-rule="nonzero"/>
</svg>
