<svg width="50.000000" height="50.000000" viewBox="0 0 50 50" fill="none" xmlns="http://www.w3.org/2000/svg" xmlns:xlink="http://www.w3.org/1999/xlink">
	<desc>
			Created with Pixso.
	</desc>
	<defs/>
	<rect id="Figma" rx="10.000000" width="50.000000" height="50.000000" fill="#242938" fill-opacity="1.000000"/>
	<path id="Vector" d="M25.32 25.5C25.32 22.65 27.63 20.33 30.49 20.33C33.34 20.33 35.66 22.64 35.66 25.5C35.66 28.35 33.35 30.67 30.49 30.67C27.64 30.67 25.32 28.35 25.32 25.5Z" fill="#1ABCFE" fill-opacity="1.000000" fill-rule="nonzero"/>
	<path id="Vector" d="M15 35.83C15 32.98 17.3 30.66 20.16 30.66L25.33 30.66L25.33 35.83C25.33 38.67 23.02 41 20.16 41C17.3 41 15 38.69 15 35.83Z" fill="#0ACF83" fill-opacity="1.000000" fill-rule="nonzero"/>
	<path id="Vector" d="M25.32 10.01L25.32 20.33L30.49 20.33C33.34 20.33 35.66 18.02 35.66 15.16C35.66 12.32 33.35 10 30.49 10L25.32 10L25.32 10.01Z" fill="#FF7262" fill-opacity="1.000000" fill-rule="nonzero"/>
	<path id="Vector" d="M15 15.18C15 18.02 17.3 20.34 20.16 20.34L25.33 20.34L25.33 10.01L20.16 10.01C17.3 10.01 15 12.32 15 15.18Z" fill="#F24E1E" fill-opacity="1.000000" fill-rule="nonzero"/>
	<path id="Vector" d="M15 25.5C15 28.35 17.3 30.67 20.16 30.67L25.33 30.67L25.33 20.33L20.16 20.33C17.3 20.33 15 22.65 15 25.5Z" fill="#A259FF" fill-opacity="1.000000" fill-rule="nonzero"/>
</svg>
