<svg width="50.000000" height="50.000000" viewBox="0 0 50 50" fill="none" xmlns="http://www.w3.org/2000/svg" xmlns:xlink="http://www.w3.org/1999/xlink">
	<desc>
			Created with Pixso.
	</desc>
	<defs>
		<clipPath id="clip23_1547">
			<rect id="git-icon 1" width="31.000000" height="31.000000" transform="translate(9.000000 10.000000)" fill="white" fill-opacity="0"/>
		</clipPath>
	</defs>
	<rect id="Git" rx="10.000000" width="50.000000" height="50.000000" fill="#242938" fill-opacity="1.000000"/>
	<rect id="git-icon 1" width="31.000000" height="31.000000" transform="translate(9.000000 10.000000)" fill="#FFFFFF" fill-opacity="0"/>
	<g clip-path="url(#clip23_1547)">
		<path id="Vector" d="M39.41 24.11L25.88 10.58C25.1 9.8 23.83 9.8 23.05 10.58L20.24 13.39L23.81 16.96C24.64 16.68 25.59 16.86 26.25 17.52C26.91 18.19 27.1 19.15 26.81 19.98L30.25 23.41C31.08 23.13 32.04 23.31 32.7 23.98C33.63 24.91 33.63 26.41 32.7 27.34C31.77 28.27 30.27 28.27 29.34 27.34C28.64 26.64 28.47 25.61 28.82 24.75L25.62 21.55L25.62 29.98C25.85 30.1 26.06 30.25 26.25 30.43C27.17 31.36 27.17 32.86 26.25 33.79C25.32 34.72 23.81 34.72 22.89 33.79C21.96 32.86 21.96 31.36 22.89 30.43C23.11 30.21 23.37 30.03 23.66 29.91L23.66 21.4C23.37 21.28 23.11 21.11 22.89 20.88C22.18 20.18 22.01 19.15 22.37 18.29L18.86 14.77L9.58 24.05C8.8 24.83 8.8 26.1 9.58 26.88L23.12 40.41C23.89 41.19 25.16 41.19 25.94 40.41L39.41 26.94C40.19 26.16 40.19 24.89 39.41 24.11Z" fill="#DE4C36" fill-opacity="1.000000" fill-rule="nonzero"/>
	</g>
</svg>
