<svg width="50.000000" height="50.000000" viewBox="0 0 50 50" fill="none" xmlns="http://www.w3.org/2000/svg" xmlns:xlink="http://www.w3.org/1999/xlink">
	<desc>
			Created with Pixso.
	</desc>
	<defs/>
	<rect id="Html" rx="10.000000" width="50.000000" height="50.000000" fill="#E44D26" fill-opacity="1.000000"/>
	<path id="Vector" d="M16.98 15.47L24.72 15.47L24.72 10L11 10L11.13 11.46L12.47 26.55L24.72 26.55L24.72 21.07L17.48 21.07L16.98 15.47ZM18.21 29.28L12.72 29.28L13.48 37.88L24.7 40.99L24.72 40.98L24.72 35.29L24.7 35.3L18.6 33.65L18.21 29.28Z" fill="#EBEBEB" fill-opacity="1.000000" fill-rule="nonzero"/>
	<path id="Vector" d="M24.72 26.55L31.46 26.55L30.82 33.65L24.72 35.29L24.72 40.99L35.94 37.88L36.02 36.95L37.31 22.54L37.44 21.07L24.72 21.07L24.72 26.55ZM24.72 15.46L24.72 15.47L37.94 15.47L38.05 14.24L38.3 11.46L38.43 10L24.72 10L24.72 15.46Z" fill="#FFFFFF" fill-opacity="1.000000" fill-rule="nonzero"/>
</svg>
