<svg width="50.000000" height="50.000000" viewBox="0 0 50 50" fill="none" xmlns="http://www.w3.org/2000/svg" xmlns:xlink="http://www.w3.org/1999/xlink">
	<desc>
			Created with Pixso.
	</desc>
	<defs>
		<clipPath id="clip23_1583">
			<rect id="JS" rx="10.000000" width="50.000000" height="50.000000" fill="white" fill-opacity="0"/>
		</clipPath>
	</defs>
	<rect id="JS" rx="10.000000" width="50.000000" height="50.000000" fill="#F7DF1E" fill-opacity="1.000000"/>
	<g clip-path="url(#clip23_1583)">
		<path id="Vector" d="M33.58 39.06C34.59 40.7 35.9 41.91 38.22 41.91C40.16 41.91 41.41 40.94 41.41 39.59C41.41 37.98 40.13 37.41 37.99 36.47L36.81 35.97C33.42 34.53 31.17 32.72 31.17 28.89C31.17 25.37 33.85 22.68 38.05 22.68C41.04 22.68 43.19 23.72 44.73 26.45L41.07 28.8C40.27 27.35 39.4 26.78 38.05 26.78C36.67 26.78 35.8 27.66 35.8 28.8C35.8 30.21 36.67 30.78 38.69 31.65L39.87 32.15C43.86 33.86 46.11 35.61 46.11 39.53C46.11 43.76 42.79 46.08 38.33 46.08C33.96 46.08 31.14 44 29.76 41.28L33.58 39.06ZM16.98 39.47C17.72 40.77 18.39 41.88 20.01 41.88C21.55 41.88 22.53 41.28 22.53 38.93L22.53 22.95L27.22 22.95L27.22 38.99C27.22 43.86 24.37 46.07 20.21 46.07C16.45 46.07 14.27 44.13 13.16 41.78L16.98 39.47Z" fill="#000000" fill-opacity="1.000000" fill-rule="nonzero"/>
	</g>
</svg>
