<svg width="50.000000" height="50.000000" viewBox="0 0 50 50" fill="none" xmlns="http://www.w3.org/2000/svg" xmlns:xlink="http://www.w3.org/1999/xlink">
	<desc>
			Created with Pixso.
	</desc>
	<defs>
		<clipPath id="clip23_1578">
			<rect id="Logo" width="31.085873" height="31.000000" transform="translate(9.000000 10.000000)" fill="white" fill-opacity="0"/>
		</clipPath>
		<linearGradient x1="307.002930" y1="287.800415" x2="1840.273193" y2="1814.444702" id="paint_linear_23_1576_0" gradientUnits="userSpaceOnUse">
			<stop stop-color="#387EB8"/>
			<stop offset="1.000000" stop-color="#366994"/>
		</linearGradient>
		<linearGradient x1="456.868530" y1="492.666992" x2="2103.591797" y2="2058.261963" id="paint_linear_23_1577_0" gradientUnits="userSpaceOnUse">
			<stop stop-color="#FFE052"/>
			<stop offset="1.000000" stop-color="#FFC331"/>
		</linearGradient>
	</defs>
	<rect id="Python" rx="10.000000" width="50.000000" height="50.000000" fill="#242938" fill-opacity="1.000000"/>
	<rect id="Logo" width="31.085873" height="31.000000" transform="translate(9.000000 10.000000)" fill="#FFFFFF" fill-opacity="0"/>
	<g clip-path="url(#clip23_1578)">
		<path id="Vector" d="M24.41 10C16.53 10 17.02 13.42 17.02 13.42L17.03 16.96L24.54 16.96L24.54 18.03L14.05 18.03C14.05 18.03 9.01 17.45 9.01 25.41C9.01 33.36 13.41 33.08 13.41 33.08L16.03 33.08L16.03 29.39C16.03 29.39 15.89 24.98 20.36 24.98L27.81 24.98C27.81 24.98 32 25.05 32 20.93L32 14.12C32 14.12 32.63 10 24.41 10ZM20.26 12.39C20.44 12.38 20.62 12.42 20.78 12.49C20.94 12.56 21.09 12.66 21.22 12.78C21.34 12.91 21.44 13.06 21.51 13.22C21.58 13.38 21.61 13.56 21.61 13.74C21.61 13.92 21.58 14.09 21.51 14.26C21.44 14.42 21.34 14.57 21.22 14.7C21.09 14.82 20.94 14.92 20.78 14.99C20.62 15.06 20.44 15.09 20.26 15.09C20.08 15.09 19.91 15.06 19.75 14.99C19.58 14.92 19.43 14.82 19.31 14.7C19.18 14.57 19.08 14.42 19.01 14.26C18.95 14.09 18.91 13.92 18.91 13.74C18.91 13.56 18.95 13.38 19.01 13.22C19.08 13.06 19.18 12.91 19.31 12.78C19.43 12.66 19.58 12.56 19.75 12.49C19.91 12.42 20.08 12.38 20.26 12.39Z" fill="url(#paint_linear_23_1576_0)" fill-opacity="1.000000" fill-rule="nonzero"/>
		<path id="Vector" d="M24.63 40.89C32.5 40.89 32.01 37.47 32.01 37.47L32 33.93L24.49 33.93L24.49 32.87L34.98 32.87C34.98 32.87 40.02 33.44 40.02 25.49C40.02 17.53 35.62 17.82 35.62 17.82L33 17.82L33 21.51C33 21.51 33.14 25.91 28.67 25.91L21.22 25.91C21.22 25.91 17.04 25.84 17.04 29.96L17.04 36.77C17.04 36.77 16.4 40.89 24.63 40.89L24.63 40.89ZM28.77 38.51C28.59 38.51 28.42 38.47 28.25 38.4C28.09 38.34 27.94 38.24 27.81 38.11C27.69 37.99 27.59 37.84 27.52 37.67C27.45 37.51 27.42 37.33 27.42 37.15C27.42 36.98 27.45 36.8 27.52 36.64C27.59 36.47 27.69 36.32 27.81 36.2C27.94 36.07 28.09 35.97 28.25 35.9C28.42 35.84 28.59 35.8 28.77 35.8C28.95 35.8 29.12 35.84 29.29 35.9C29.45 35.97 29.6 36.07 29.73 36.2C29.85 36.32 29.95 36.47 30.02 36.64C30.09 36.8 30.12 36.98 30.12 37.15C30.12 37.33 30.09 37.51 30.02 37.67C29.95 37.84 29.85 37.99 29.73 38.11C29.6 38.24 29.45 38.34 29.29 38.4C29.12 38.47 28.95 38.51 28.77 38.51Z" fill="url(#paint_linear_23_1577_0)" fill-opacity="1.000000" fill-rule="nonzero"/>
	</g>
</svg>
