<svg width="50.000000" height="50.000000" viewBox="0 0 50 50" fill="none" xmlns="http://www.w3.org/2000/svg" xmlns:xlink="http://www.w3.org/1999/xlink">
	<desc>
			Created with Pixso.
	</desc>
	<defs/>
	<rect id="React" rx="10.000000" width="50.000000" height="50.000000" fill="#242938" fill-opacity="1.000000"/>
	<path id="Vector" d="M42.81 25.5C42.81 23.19 39.92 21.01 35.49 19.65C36.51 15.14 36.06 11.55 34.06 10.4C33.6 10.13 33.06 10 32.47 10L32.47 11.58C32.79 11.58 33.06 11.65 33.28 11.77C34.24 12.32 34.66 14.43 34.33 17.14C34.25 17.81 34.13 18.51 33.97 19.23C32.58 18.89 31.06 18.62 29.47 18.45C28.51 17.14 27.51 15.95 26.51 14.91C28.83 12.76 31 11.58 32.47 11.58L32.47 10C30.52 10 27.97 11.39 25.39 13.8C22.8 11.4 20.25 10.02 18.3 10.02L18.3 11.61C19.77 11.61 21.94 12.78 24.26 14.91C23.26 15.96 22.27 17.14 21.33 18.45C19.72 18.62 18.2 18.89 16.81 19.23C16.65 18.52 16.53 17.84 16.45 17.18C16.11 14.47 16.52 12.36 17.48 11.8C17.69 11.67 17.97 11.61 18.3 11.61L18.3 10.03C17.7 10.03 17.16 10.16 16.69 10.43C14.7 11.58 14.25 15.16 15.28 19.66C10.87 21.02 8 23.2 8 25.5C8 27.8 10.88 29.99 15.31 31.35C14.29 35.86 14.74 39.45 16.74 40.6C17.2 40.87 17.74 41 18.34 41C20.29 41 22.85 39.6 25.43 37.19C28.01 39.59 30.57 40.97 32.52 40.97C33.11 40.97 33.65 40.84 34.12 40.57C36.11 39.42 36.56 35.84 35.53 31.34C39.93 29.98 42.81 27.8 42.81 25.5ZM33.57 20.77C33.3 21.68 32.98 22.62 32.61 23.57C32.32 23 32.01 22.43 31.68 21.87C31.35 21.3 31.01 20.74 30.66 20.21C31.66 20.35 32.64 20.54 33.57 20.77ZM30.32 28.32C29.76 29.28 29.2 30.19 28.61 31.03C27.55 31.13 26.48 31.17 25.4 31.17C24.33 31.17 23.26 31.13 22.21 31.04C21.62 30.2 21.04 29.29 20.49 28.34C19.95 27.41 19.46 26.47 19.01 25.52C19.45 24.57 19.95 23.62 20.48 22.69C21.04 21.73 21.6 20.82 22.19 19.98C23.25 19.89 24.32 19.84 25.4 19.84C26.47 19.84 27.54 19.89 28.59 19.97C29.18 20.82 29.76 21.72 30.31 22.67C30.85 23.6 31.34 24.54 31.79 25.49C31.34 26.44 30.85 27.39 30.32 28.32ZM32.61 27.4C32.99 28.35 33.32 29.3 33.59 30.22C32.66 30.45 31.68 30.64 30.66 30.79C31.01 30.25 31.36 29.68 31.69 29.11C32.01 28.54 32.32 27.97 32.61 27.4ZM25.41 34.97C24.75 34.29 24.09 33.53 23.44 32.7C24.08 32.73 24.73 32.75 25.39 32.75C26.06 32.75 26.72 32.74 27.37 32.7C26.73 33.53 26.07 34.29 25.41 34.97ZM20.14 30.79C19.13 30.64 18.16 30.46 17.23 30.23C17.49 29.32 17.82 28.37 18.18 27.43C18.47 28 18.78 28.56 19.11 29.13C19.45 29.7 19.79 30.25 20.14 30.79ZM25.38 16.03C26.04 16.71 26.7 17.47 27.35 18.3C26.71 18.27 26.06 18.25 25.4 18.25C24.73 18.25 24.07 18.26 23.43 18.3C24.07 17.47 24.73 16.71 25.38 16.03ZM20.13 20.21C19.78 20.75 19.43 21.31 19.11 21.89C18.78 22.45 18.47 23.02 18.18 23.59C17.8 22.64 17.47 21.69 17.2 20.77C18.13 20.55 19.11 20.35 20.13 20.21ZM13.71 29.09C11.2 28.02 9.57 26.61 9.57 25.5C9.57 24.38 11.2 22.97 13.71 21.91C14.32 21.65 14.98 21.41 15.67 21.19C16.08 22.58 16.61 24.03 17.27 25.51C16.62 26.99 16.09 28.43 15.69 29.81C14.99 29.59 14.32 29.35 13.71 29.09ZM17.52 39.23C16.56 38.67 16.14 36.57 16.47 33.86C16.54 33.19 16.67 32.49 16.83 31.77C18.22 32.11 19.74 32.37 21.33 32.54C22.29 33.86 23.29 35.05 24.29 36.09C21.97 38.24 19.8 39.42 18.33 39.42C18.01 39.41 17.74 39.35 17.52 39.23ZM34.35 33.82C34.69 36.53 34.28 38.64 33.32 39.2C33.11 39.33 32.83 39.38 32.5 39.38C31.03 39.38 28.86 38.21 26.54 36.08C27.54 35.03 28.53 33.85 29.47 32.54C31.08 32.37 32.59 32.1 33.99 31.76C34.15 32.47 34.28 33.16 34.35 33.82ZM37.09 29.09C36.48 29.35 35.81 29.59 35.12 29.81C34.72 28.41 34.18 26.97 33.52 25.48C34.18 24.01 34.7 22.57 35.1 21.18C35.8 21.4 36.47 21.65 37.09 21.91C39.61 22.98 41.23 24.38 41.23 25.5C41.22 26.61 39.6 28.02 37.09 29.09Z" fill="#61DAFB" fill-opacity="1.000000" fill-rule="nonzero"/>
	<path id="Vector" d="M28.64 25.5C28.64 27.29 27.18 28.74 25.39 28.74C23.6 28.74 22.15 27.29 22.15 25.5C22.15 23.71 23.6 22.26 25.39 22.26C27.18 22.26 28.64 23.71 28.64 25.5Z" fill="#61DAFB" fill-opacity="1.000000" fill-rule="evenodd"/>
</svg>
