<svg width="50.000000" height="50.000000" viewBox="0 0 50 50" fill="none" xmlns="http://www.w3.org/2000/svg" xmlns:xlink="http://www.w3.org/1999/xlink">
	<desc>
			Created with Pixso.
	</desc>
	<defs>
		<clipPath id="clip26_1528">
			<rect id="WebStorm_Icon" width="39.000000" height="40.000000" transform="translate(6.000000 5.000000)" fill="white" fill-opacity="0"/>
		</clipPath>
		<linearGradient x1="19.966459" y1="5.834215" x2="30.059095" y2="43.099998" id="paint_linear_26_1530_0" gradientUnits="userSpaceOnUse">
			<stop offset="0.284900" stop-color="#00CDD7"/>
			<stop offset="0.940900" stop-color="#2086D7"/>
		</linearGradient>
		<linearGradient x1="23.115499" y1="10.562460" x2="40.189140" y2="36.240570" id="paint_linear_26_1532_0" gradientUnits="userSpaceOnUse">
			<stop offset="0.139800" stop-color="#FFF045"/>
			<stop offset="0.365600" stop-color="#00CDD7"/>
		</linearGradient>
		<linearGradient x1="40.031597" y1="13.737241" x2="42.273540" y2="21.882381" id="paint_linear_26_1534_0" gradientUnits="userSpaceOnUse">
			<stop offset="0.284900" stop-color="#00CDD7"/>
			<stop offset="0.940900" stop-color="#2086D7"/>
		</linearGradient>
	</defs>
	<rect id="WS" rx="10.000000" width="50.000000" height="50.000000" fill="#242938" fill-opacity="1.000000"/>
	<g clip-path="url(#clip26_1528)">
		<path id="polygon" d="M11.23 41.17L6 9.17L15.75 5.05L21.93 8.82L27.61 5.68L39.48 10.37L32.79 45L11.23 41.17Z" fill="url(#paint_linear_26_1530_0)" fill-opacity="1.000000" fill-rule="nonzero"/>
		<path id="polygon" d="M45 18.54L39.98 5.8L30.84 5L16.75 18.88L20.54 36.77L27.61 41.91L45 31.28L40.71 23.11L45 18.54Z" fill="url(#paint_linear_26_1532_0)" fill-opacity="1.000000" fill-rule="nonzero"/>
		<path id="polygon" d="M37.2 16.65L40.71 23.11L45 18.54L41.87 10.6L37.2 16.65Z" fill="url(#paint_linear_26_1534_0)" fill-opacity="1.000000" fill-rule="nonzero"/>
		<rect id="rect" x="13.465820" y="12.657227" width="24.068569" height="24.685713" fill="#000000" fill-opacity="1.000000"/>
		<rect id="rect" x="15.750000" y="32.714355" width="9.025715" height="1.542858" fill="#FFFFFF" fill-opacity="1.000000"/>
		<path id="path" d="M27.56 24.6L28.84 23C29.73 23.74 30.68 24.25 31.79 24.25C32.68 24.25 33.18 23.91 33.18 23.28L33.18 23.22C33.18 22.65 32.85 22.37 31.18 21.91C29.17 21.4 27.95 20.82 27.95 18.77L27.95 18.71C27.95 16.82 29.4 15.62 31.4 15.62C32.85 15.62 34.08 16.08 35.08 16.94L33.96 18.65C33.07 18.02 32.24 17.62 31.4 17.62C30.57 17.62 30.12 18.02 30.12 18.54L30.12 18.6C30.12 19.28 30.57 19.51 32.24 19.97C34.24 20.54 35.36 21.28 35.36 23.05L35.36 23.11C35.36 25.17 33.85 26.31 31.74 26.31C30.23 26.25 28.73 25.68 27.56 24.6Z" fill="#FFFFFF" fill-opacity="1.000000" fill-rule="nonzero"/>
		<path id="polygon" d="M25.61 15.85L24.1 21.8L22.43 15.85L20.76 15.85L19.03 21.8L17.53 15.85L15.24 15.85L18.09 26.08L19.92 26.08L21.6 20.14L23.21 26.08L25.11 26.08L27.95 15.85L25.61 15.85Z" fill="#FFFFFF" fill-opacity="1.000000" fill-rule="nonzero"/>
	</g>
</svg>
